Coordinates
version=1
nRows=17
nColumns=38
inDegrees=no

Units are S.I. units (second, meters, Newtons, ...)
If the header above contains a line with 'inDegrees', this indicates whether rotational values are in degrees (yes) or radians (no).

endheader
time	pelvis_tilt	pelvis_list	pelvis_rotation	pelvis_tx	pelvis_ty	pelvis_tz	hip_flexion_r	hip_adduction_r	hip_rotation_r	knee_angle_r	ankle_angle_r	subtalar_angle_r	mtp_angle_r	hip_flexion_l	hip_adduction_l	hip_rotation_l	knee_angle_l	ankle_angle_l	subtalar_angle_l	mtp_angle_l	lumbar_extension	lumbar_bending	lumbar_rotation	arm_flex_r	arm_add_r	arm_rot_r	elbow_flex_r	pro_sup_r	wrist_flex_r	wrist_dev_r	arm_flex_l	arm_add_l	arm_rot_l	elbow_flex_l	pro_sup_l	wrist_flex_l	wrist_dev_l
0	-0.889481	1.40392	-0.585058	0.731921	2.06809	0.939839	0.0965417	0.146006	-0.116819	0.331186	-0.2345	0	0	-0.0610108	-0.341549	-0.215126	1.21342	-0.44128	0	0	-0.195434	0.207127	-0.0202519	-0.177695	-0.354916	0.136391	0.885978	1.5708	0	0	0.0501914	-0.232822	0.436478	0.701672	1.5708	0	0
0.01	-0.87932	1.40738	-0.5946	0.730516	2.05913	0.941559	0.078427	0.146151	-0.111177	0.312557	-0.236661	0	0	-0.0316442	-0.322805	-0.173164	1.24761	-0.404788	0	0	-0.191712	0.203441	-0.0183232	-0.171943	-0.353553	0.133822	0.886635	1.5708	0	0	0.0457819	-0.218898	0.410058	0.678345	1.5708	0	0
0.02	-0.85715	1.40913	-0.618132	0.729136	2.05006	0.94314	0.0587214	0.146272	-0.107698	0.298153	-0.236926	0	0	-0.00696638	-0.313023	-0.154009	1.27989	-0.372485	0	0	-0.192922	0.198191	-0.0172279	-0.163662	-0.353092	0.133975	0.88843	1.5708	0	0	0.0364141	-0.218124	0.397552	0.674205	1.5708	0	0
0.03	-0.832238	1.41238	-0.646121	0.727625	2.04129	0.944707	0.041587	0.144455	-0.104818	0.287809	-0.236032	0	0	0.0172204	-0.298371	-0.132706	1.30745	-0.338808	0	0	-0.194292	0.191044	-0.0152078	-0.153892	-0.353034	0.135902	0.889702	1.5708	0	0	0.0267703	-0.217717	0.383249	0.671831	1.5708	0	0
0.04	-0.807236	1.41554	-0.676641	0.72594	2.03256	0.946109	0.0255384	0.142429	-0.103078	0.279926	-0.234231	0	0	0.0410142	-0.288422	-0.123759	1.33174	-0.31395	0	0	-0.195839	0.183707	-0.0106401	-0.14495	-0.353338	0.136789	0.892472	1.5708	0	0	0.0167053	-0.218227	0.370412	0.672066	1.5708	0	0
0.05	-0.782292	1.41923	-0.708179	0.724206	2.02385	0.947363	0.0106588	0.139661	-0.102147	0.273371	-0.231835	0	0	0.0647557	-0.279727	-0.119782	1.35097	-0.293427	0	0	-0.197103	0.1758	-0.00561881	-0.136174	-0.353028	0.135931	0.895865	1.5708	0	0	0.00573482	-0.219007	0.356139	0.674406	1.5708	0	0
0.06	-0.75884	1.42401	-0.736344	0.722905	2.01475	0.948538	-0.00403012	0.135358	-0.106601	0.265174	-0.230206	0	0	0.0889124	-0.270364	-0.116374	1.3636	-0.27734	0	0	-0.196134	0.167889	-0.00354022	-0.128179	-0.352076	0.133664	0.898892	1.5708	0	0	-0.00667783	-0.218863	0.339768	0.676702	1.5708	0	0
0.07	-0.433057	1.40492	-1.07267	0.719415	2.00565	0.956576	-0.0767619	0.109656	-0.11577	0.23838	-0.245389	0	0	0.0558676	-0.253723	-0.148144	1.34439	-0.306981	0	0	-0.247826	0.129757	-0.00281832	-0.0960179	-0.33642	0.141708	0.876591	1.5708	0	0	-0.0135919	-0.227364	0.319314	0.677558	1.5708	0	0
0.08	-0.672238	1.42905	-0.832158	0.720262	1.99724	0.951035	-0.0396983	0.126078	-0.11412	0.246605	-0.231895	0	0	0.128568	-0.25292	-0.115615	1.37192	-0.253769	0	0	-0.204574	0.150689	-0.00463424	-0.105061	-0.348742	0.133046	0.905433	1.5708	0	0	-0.0378481	-0.219927	0.290917	0.696201	1.5708	0	0
0.09	-0.627221	1.43122	-0.881631	0.718847	1.98896	0.952053	-0.0559922	0.121598	-0.112872	0.239508	-0.228764	0	0	0.148545	-0.244934	-0.116386	1.36956	-0.246134	0	0	-0.20806	0.142073	-0.000780316	-0.0961978	-0.347214	0.13002	0.909645	1.5708	0	0	-0.0458548	-0.221745	0.281549	0.700022	1.5708	0	0
0.1	-0.57164	1.43159	-0.942188	0.717564	1.98042	0.953161	-0.0755526	0.116561	-0.11222	0.23031	-0.22669	0	0	0.163835	-0.23718	-0.120998	1.36114	-0.237403	0	0	-0.214174	0.133252	0.00278761	-0.0873991	-0.344911	0.125578	0.914606	1.5708	0	0	-0.0549393	-0.223068	0.269754	0.705691	1.5708	0	0
0.11	-0.516809	1.43082	-1.00366	0.716264	1.9715	0.95413	-0.09663	0.111513	-0.111376	0.220115	-0.225637	0	0	0.175655	-0.23125	-0.131293	1.34757	-0.2275	0	0	-0.221461	0.123178	0.00413188	-0.0751518	-0.341439	0.124891	0.916712	1.5708	0	0	-0.0697546	-0.238884	0.286771	0.725345	1.5708	0	0
0.12	-0.462733	1.42974	-1.06462	0.714994	1.96247	0.955175	-0.118025	0.106064	-0.111091	0.209005	-0.226251	0	0	0.185646	-0.225428	-0.143839	1.32829	-0.217613	0	0	-0.227953	0.116038	0.0106586	-0.0701675	-0.338627	0.115115	0.925411	1.5708	0	0	-0.0771159	-0.22226	0.235621	0.719776	1.5708	0	0
0.13	-0.419012	1.42869	-1.11301	0.713917	1.95379	0.955837	-0.137189	0.101701	-0.111841	0.200139	-0.225082	0	0	0.197665	-0.219669	-0.152558	1.3069	-0.210703	0	0	-0.233855	0.109044	0.012164	-0.060385	-0.33668	0.114007	0.930808	1.5708	0	0	-0.0871587	-0.220288	0.215916	0.72574	1.5708	0	0
0.14	-0.428864	1.4469	-1.10324	0.715967	1.94389	0.955712	-0.134353	0.0900346	-0.121082	0.193617	-0.225349	0	0	0.230618	-0.20047	-0.15037	1.28002	-0.203977	0	0	-0.195956	0.130218	-0.00111014	-0.0604032	-0.349514	0.117526	0.944959	1.5708	0	0	-0.0947043	-0.155879	0.328703	0.723078	1.5708	0	0
0.15	-0.467565	1.46364	-1.07152	0.716283	1.93578	0.955174	-0.12587	0.084566	-0.11486	0.193376	-0.221854	0	0	0.266691	-0.189133	-0.149056	1.25063	-0.195915	0	0	-0.125788	0.140797	0.211792	-0.253147	-0.316791	-0.148178	1.01003	1.5708	0	0	0.104282	-0.108196	0.773171	0.478856	1.5708	0	0
0.16	-0.423858	1.45708	-1.11982	0.712389	1.92814	0.95561	-0.147288	0.0896225	-0.0999028	0.186982	-0.21855	0	0	0.269811	-0.193771	-0.161585	1.21387	-0.197226	0	0	-0.147425	0.125308	0.224091	-0.240267	-0.31276	-0.147483	1.01465	1.5708	0	0	0.111109	-0.119447	0.769614	0.491	1.5708	0	0
